inDegrees=yes
name=ik_02012121_23339._orientations
DataType=double
version=3
OpenSimVersion=4.1
endheader
time	pelvis_tilt	pelvis_list	pelvis_rotation	pelvis_tx	pelvis_ty	pelvis_tz	hip_flexion_r	hip_adduction_r	hip_rotation_r	knee_angle_r	knee_angle_r_beta	ankle_angle_r	subtalar_angle_r	mtp_angle_r	hip_flexion_l	hip_adduction_l	hip_rotation_l	knee_angle_l	knee_angle_l_beta	ankle_angle_l	subtalar_angle_l	mtp_angle_l	lumbar_extension	lumbar_bending	lumbar_rotation	arm_flex_r	arm_add_r	arm_rot_r	elbow_flex_r	pro_sup_r	wrist_flex_r	wrist_dev_r	arm_flex_l	arm_add_l	arm_rot_l	elbow_flex_l	pro_sup_l	wrist_flex_l	wrist_dev_l
27.08444444444717	30.55555281068638	0.460597557512212	22.84162246901876	0	0.9399999999999999	0	64.94002971559594	-13.53139832903004	0.2082641905096515	96.76558192406765	1.68887800718329	-5.000062538422509	0	0	45.10474225263085	-10.00042118929189	0	60.2050324142668	1.050776041898866	-5.000062538422509	0	0	0	0	0	0	-16.16745434011577	0	74.81958357768193	45.00181756378694	0	0	0	-16.16745434011577	0	74.81958357768193	45.00181756378694	0	0
27.08888888889162	30.54003098878179	0.4679000114789048	22.83577936029801	0	0.9399999999999999	0	64.91828288909232	-13.5212794131277	0.2042722357787595	96.7509746010912	1.688623061302449	-5.000062322505414	0	0	45.10464635907234	-10.00042002270235	0	60.20488325793306	1.050773438629742	-5.000062322505414	0	0	0	0	0	0	-16.16688864091906	0	74.81974891335665	45.00181343082772	0	0	0	-16.16688864091906	0	74.81974891335665	45.00181343082772	0	0
27.09333333333606	30.52546777579068	0.4791626613253476	22.83202951691334	0	0.9399999999999999	0	64.89431469658008	-13.50842584038372	0.1995331368863802	96.72994730235251	1.688256065706658	-5.000062068816321	0	0	45.10453326214191	-10.00041864999977	0	60.20470730908864	1.050770367743092	-5.000062068816321	0	0	0	0	0	0	-16.16622126978911	0	74.81994391036953	45.00180856356572	0	0	0	-16.16622126978911	0	74.81994391036953	45.00180856356572	0	0
27.09777777778051	30.51023415423739	0.4893420996160904	22.82965173026318	0	0.9399999999999999	0	64.87061242699193	-13.49570547410653	0.1953203436062493	96.71010042719207	1.687909672388876	-5.000061823621055	0	0	45.10442427662328	-10.00041732462064	0	60.20453777834528	1.050767408873437	-5.000061823621055	0	0	0	0	0	0	-16.16557832478732	0	74.82013181865798	45.00180386717274	0	0	0	-16.16557832478732	0	74.82013181865798	45.00180386717274	0	0
27.10222222222495	30.49378026951857	0.5034495767999914	22.82510476155747	0	0.9399999999999999	0	64.84753100439669	-13.48307252797135	0.1897388755263509	96.69196187016354	1.687593094847168	-5.000061585265022	0	0	45.10431574562541	-10.00041602738745	0	60.20436868994681	1.050764457724157	-5.000061585265022	0	0	0	0	0	0	-16.16493577451667	0	74.82031894327243	45.00179924800746	0	0	0	-16.16493577451667	0	74.82031894327243	45.00179924800746	0	0
27.1066666666694	30.47623152736558	0.5167458690179442	22.82157056619905	0	0.9399999999999999	0	64.82448567507608	-13.47055854824159	0.1845334385203415	96.67492604123622	1.687295763541579	-5.000061354039066	0	0	45.10421055982385	-10.00041476952375	0	60.20420481289664	1.050761597530063	-5.000061354039066	0	0	0	0	0	0	-16.1643130054733	0	74.82050030023886	45.001794770099	0	0	0	-16.1643130054733	0	74.82050030023886	45.001794770099	0	0
27.11111111111384	30.45911033765201	0.5301845758119789	22.82035574432891	0	0.9399999999999999	0	64.80145817192911	-13.45737970972058	0.1797248697511622	96.65725957887747	1.68698742560624	-5.000061121136124	0	0	45.10410476132954	-10.00041350315592	0	60.20403998826593	1.050758720797569	-5.000061121136124	0	0	0	0	0	0	-16.16368667281855	0	74.82068271358513	45.00179026335271	0	0	0	-16.16368667281855	0	74.82068271358513	45.00179026335271	0	0
27.11555555555829	30.44204050116136	0.5436404079361248	22.81897431673703	0	0.9399999999999999	0	64.77859351706167	-13.4443362201811	0.1748971249399295	96.63979257045699	1.686682568798829	-5.000060890396389	0	0	45.10399965338659	-10.00041224763941	0	60.20387620443873	1.050755862230523	-5.000060890396389	0	0	0	0	0	0	-16.16306412416884	0	74.82086393631074	45.00178579280342	0	0	0	-16.16306412416884	0	74.82086393631074	45.00178579280342	0	0
27.12000000000273	30.423477942714	0.5571114745228215	22.81569238056059	0	0.9399999999999999	0	64.75478235047444	-13.43167079186591	0.1695998563003591	96.6212471652774	1.686358890417328	-5.000060654107913	0	0	45.1038926513934	-10.00041096401205	0	60.20370952641606	1.050752953150236	-5.000060654107913	0	0	0	0	0	0	-16.16243090474567	0	74.82104842468152	45.00178122763341	0	0	0	-16.16243090474567	0	74.82104842468152	45.00178122763341	0	0
27.12444444444718	30.40441231762576	0.5686391528975461	22.81115133894406	0	0.9399999999999999	0	64.73060257085717	-13.41980192856332	0.1645019566437924	96.60228159651381	1.68602787879789	-5.000060418112119	0	0	45.10378692987319	-10.00040968591695	0	60.20354494967471	1.050750080744228	-5.000060418112119	0	0	0	0	0	0	-16.16180621709989	0	74.82123070531817	45.00177669215955	0	0	0	-16.16180621709989	0	74.82123070531817	45.00177669215955	0	0
27.12888888889162	30.3864205516623	0.579377228603387	22.80672665396818	0	0.9399999999999999	0	64.70564436927343	-13.40768145185717	0.1595856204221963	96.5804787551502	1.685647347429805	-5.000060169152352	0	0	45.10367630311308	-10.00040834049688	0	60.20337282816618	1.05074707665719	-5.000060169152352	0	0	0	0	0	0	-16.16115338366209	0	74.82142144336902	45.001771925525	0	0	0	-16.16115338366209	0	74.82142144336902	45.001771925525	0	0
27.13333333333607	30.36695290928295	0.591361294210514	22.80423354483534	0	0.9399999999999999	0	64.68061467002968	-13.39490684228229	0.1546644036185427	96.55957747053739	1.685282551195415	-5.000059924441063	0	0	45.10356690930043	-10.00040701594548	0	60.2032025515261	1.050744104769182	-5.000059924441063	0	0	0	0	0	0	-16.16050717606146	0	74.82161005562081	45.00176722727321	0	0	0	-16.16050717606146	0	74.82161005562081	45.00176722727321	0	0
27.13777777778051	30.34858057610367	0.6026816999434894	22.80122124470934	0	0.9399999999999999	0	64.65489203032104	-13.38207124362373	0.1497897322733469	96.53592224312933	1.684869689591837	-5.000059667428113	0	0	45.10345275282187	-10.0004056270989	0	60.2030249370239	1.050741004811319	-5.000059667428113	0	0	0	0	0	0	-16.15983354151376	0	74.82180687946628	45.00176230725009	0	0	0	-16.15983354151376	0	74.82180687946628	45.00176230725009	0	0
